<?xml version="1.0" encoding="UTF-8"?>
<svg id="Layer_1" data-name="Layer 1" xmlns="http://www.w3.org/2000/svg" viewBox="0 0 300 216">
  <defs>
    <style>
      .cls-1 {
        fill: none;
        stroke: #0ea5e9;
        stroke-miterlimit: 10;
        stroke-width: 5px;
      }
    </style>
  </defs>
  <path class="cls-1" d="m147.48,6.03v127.75c0,11.62-1.78,22.13-5.33,31.54-3.55,9.41-8.76,17.43-15.63,24.05-6.87,6.63-15.27,11.72-25.2,15.27-9.94,3.55-21.29,5.33-34.06,5.33s-23.98-1.66-33.34-4.97-18.36-7.9-27-13.75l18-29.09c6.82,4.71,13.2,7.99,19.16,9.87,5.95,1.87,12.72,2.81,20.31,2.81,10.27,0,18.84-3.29,25.71-9.87,6.86-6.58,10.3-16.78,10.3-30.61V40.6h-61.36V6.03h108.45Z"/>
  <path class="cls-1" d="m159.29,205.65V6.03h47.24v162.32h86.56l-4.9,37.3h-128.9Z"/>
</svg>